# xmcd CD database file
#
# Track frame offsets:
#	150
#	11303
#	25620
#	34590
#	44633
#	55833
#	73228
#	82973
#	98775
#	112118
#	125230
#	137133
#	149530
#	157915
#	167783
#	182828
#	199618
#	210595
#	222288
#	232525
#	246625
#	261023
#	271183
#
# Disc length: 3793 seconds
#
# Revision: 1
# Processed by: cddbd v1.5.2PL0 Copyright (c) Steve Scherf et al.
# Submitted via: CDex 1.70beta3
#
DISCID=4a0ecf17
DTITLE=Various Artist - アニメ主題歌大全集 DISC09
DYEAR=1900
DGENRE=Blues
TTITLE0=吉田よしみ/大ちゃん数え唄
TTITLE1=吉田よしみ/いなかっぺ大将
TTITLE2=堀絢子／ニューロイヤル/オバケのQ太郎
TTITLE3=ザ・グリンピース/オバQえかきうた
TTITLE4=チャーリー・コーセイ/ルパン三世その１
TTITLE5=チャーリー・コーセイ/ルパン三世その2
TTITLE6=桜井妙子/ムーミン谷のうた
TTITLE7=ヒデ夕樹／杉並児童合唱団/海のトリトン
TTITLE8=十田敬三／ボーカル・ショップ/デビルマンのうた
TTITLE9=十田敬三／ボーカル・ショップ/今日もどこかでデビルマン
TTITLE10=子門真人／コロムビアゆりかご会/ガッチャマンの歌
TTITLE11=コロムビアゆりかご会/倒せ!ギャラクター
TTITLE12=水木一郎/マジンガーZ
TTITLE13=水木一郎/Zのテーマ
TTITLE14=水木一郎/ぼくらのマジンガーZ
TTITLE15=内藤はるみ／劇団NLT/ドラえもん
TTITLE16=内藤はるみ/ドラえもんルンバ
TTITLE17=伊集加代子／ネリー・シュワルツ/おしえて
TTITLE18=大杉久美子／ネリー・シュワルツ/まっててごらん
TTITLE19=ささきいさお/ゲッターロボ!
TTITLE20=ささきいさお／コロムビアゆりかご会/合体!ゲッターロボ
TTITLE21=ささきいさお／ロイヤル・ナイツ/宇宙戦艦ヤマト
TTITLE22=ささきいさお／ロイヤル・ナイツ/真っ赤なスカーフ
EXTD=
EXTT0=
EXTT1=
EXTT2=
EXTT3=
EXTT4=
EXTT5=
EXTT6=
EXTT7=
EXTT8=
EXTT9=
EXTT10=
EXTT11=
EXTT12=
EXTT13=
EXTT14=
EXTT15=
EXTT16=
EXTT17=
EXTT18=
EXTT19=
EXTT20=
EXTT21=
EXTT22=
PLAYORDER=
